<?xml version="1.0" encoding="UTF-8" standalone="no"?>
<!-- Created with Inkscape (http://www.inkscape.org/) -->

<svg
   width="67.73333mm"
   height="67.73333mm"
   viewBox="0 0 67.733329 67.73333"
   version="1.1"
   id="svg1"
   inkscape:version="1.3 (0e150ed6c4, 2023-07-21)"
   sodipodi:docname="HUD_iconspack.svg"
   xmlns:inkscape="http://www.inkscape.org/namespaces/inkscape"
   xmlns:sodipodi="http://sodipodi.sourceforge.net/DTD/sodipodi-0.dtd"
   xmlns="http://www.w3.org/2000/svg"
   xmlns:svg="http://www.w3.org/2000/svg">
  <sodipodi:namedview
     id="namedview1"
     pagecolor="#505050"
     bordercolor="#ffffff"
     borderopacity="1"
     inkscape:showpageshadow="0"
     inkscape:pageopacity="0"
     inkscape:pagecheckerboard="1"
     inkscape:deskcolor="#505050"
     inkscape:document-units="mm"
     inkscape:zoom="0.99390268"
     inkscape:cx="66.404892"
     inkscape:cy="331.52139"
     inkscape:window-width="1920"
     inkscape:window-height="1009"
     inkscape:window-x="1912"
     inkscape:window-y="-8"
     inkscape:window-maximized="1"
     inkscape:current-layer="g2">
    <inkscape:page
       x="0"
       y="0"
       width="67.73333"
       height="67.73333"
       id="page1"
       margin="0"
       bleed="0" />
    <inkscape:page
       x="0.068817571"
       y="79.53138"
       width="67.73333"
       height="67.733337"
       id="page2"
       margin="0"
       bleed="0" />
    <inkscape:page
       x="-41.280445"
       y="-2.3844269e-08"
       width="33.866665"
       height="33.866669"
       id="page3"
       margin="0"
       bleed="0"
       inkscape:export-filename="Page 4.svg"
       inkscape:export-xdpi="77.054108"
       inkscape:export-ydpi="77.054108" />
    <inkscape:page
       x="-40.862694"
       y="79.861946"
       width="33.866665"
       height="33.866669"
       id="page14"
       margin="0"
       bleed="0" />
  </sodipodi:namedview>
  <defs
     id="defs1" />
  <g
     inkscape:label="Layer 1"
     inkscape:groupmode="layer"
     id="layer1">
    <rect
       style="fill:#282828;fill-opacity:0.50576925;stroke:#ececec;stroke-width:2.355;stroke-linecap:round;stroke-linejoin:round;stroke-miterlimit:4.6;stroke-dasharray:none;stroke-dashoffset:25.0961;stroke-opacity:1"
       id="rect1"
       width="64.966415"
       height="64.966415"
       x="1.4207367"
       y="1.4207367" />
  </g>
  <g
     inkscape:label="Layer 1 copy"
     inkscape:groupmode="layer"
     id="g2"
     transform="translate(83.177675,0.25831576)">
    <rect
       style="fill:#ececec;fill-opacity:1;stroke:#ececec;stroke-width:2.355;stroke-linecap:round;stroke-linejoin:round;stroke-miterlimit:4.6;stroke-dasharray:none;stroke-dashoffset:25.0961;stroke-opacity:1"
       id="rect3"
       width="45.463573"
       height="45.463573"
       x="-72.130432"
       y="90.897278"
       ry="0.12915789" />
    <g
       id="g13"
       transform="translate(-0.19373682,2.3248419)"
       style="fill:#d8d300;fill-opacity:1">
      <g
         id="g14"
         transform="matrix(1.15937,0,0,1.1984339,17.648752,-1.7043653)"
         style="fill:#d8d300;fill-opacity:0.61968082">
        <path
           id="rect4"
           style="fill:#d8d300;fill-opacity:0.50531918;stroke:none;stroke-width:2.49595;stroke-linecap:round;stroke-linejoin:miter;stroke-miterlimit:4.6;stroke-dasharray:none;stroke-dashoffset:25.0961;stroke-opacity:0.619608"
           d="M -83.278562 -58.053941 A 7.1185918 6.9490482 45 0 0 -84.10608 -58.640943 A 7.1185918 6.9490482 45 0 0 -93.729936 -56.35514 A 7.1185918 6.9490482 45 0 0 -94.213492 -55.345544 L -110.22949 -55.34605 L -110.22946 -55.250061 L -110.23261 -55.364143 L -112.25741 -54.075222 L -114.17648 -52.697741 L -112.21924 -51.570082 L -110.23581 -50.58894 L -110.22963 -50.815935 L -110.22944 -50.576923 L -108.82453 -50.576861 L -108.30499 -49.671404 L -107.73681 -48.660406 L -107.12878 -49.729169 L -106.77742 -50.335077 L -106.23765 -49.260395 L -105.58706 -47.933139 L -104.69869 -49.445936 L -104.29571 -50.120799 L -103.3627 -48.88118 L -102.43966 -49.586726 L -101.91208 -49.977902 L -101.82265 -49.923884 L -100.37006 -49.034855 L -99.788349 -50.042093 L -99.520945 -50.489746 L -98.928728 -49.31097 L -98.278132 -47.983713 L -97.389763 -49.496511 L -96.744654 -50.576777 L -95.685063 -50.577044 L -95.628838 -49.329084 L -94.455003 -49.369595 L -93.802542 -49.383012 A 7.1185918 6.9490482 45 0 0 -91.211935 -46.673285 A 7.1185918 6.9490482 45 0 0 -81.587831 -48.959434 A 7.1185918 6.9490482 45 0 0 -83.278562 -58.053941 z M -83.493515 -55.8327 L -83.493151 -55.832435 A 2.6740571 1.7339909 87.096524 0 1 -83.285104 -55.679957 A 2.6740571 1.7339909 87.096524 0 1 -83.090187 -55.487468 A 2.6740571 1.7339909 87.096524 0 1 -82.911914 -55.258579 A 2.6740571 1.7339909 87.096524 0 1 -82.753799 -54.996902 A 2.6740571 1.7339909 87.096524 0 1 -82.617749 -54.707518 A 2.6740571 1.7339909 87.096524 0 1 -82.506898 -54.395343 A 2.6740571 1.7339909 87.096524 0 1 -82.423287 -54.0645 A 2.6740571 1.7339909 87.096524 0 1 -82.367332 -53.722147 A 2.6740571 1.7339909 87.096524 0 1 -82.340695 -53.373711 A 2.6740571 1.7339909 87.096524 0 1 -82.33834 -53.253877 A 2.6740571 1.7339909 87.096524 0 1 -82.340027 -53.133821 A 2.6740571 1.7339909 87.096524 0 1 -82.344515 -53.015276 A 2.6740571 1.7339909 87.096524 0 1 -82.35268 -52.896244 A 2.6740571 1.7339909 87.096524 0 1 -82.364622 -52.778906 A 2.6740571 1.7339909 87.096524 0 1 -82.379862 -52.662386 A 2.6740571 1.7339909 87.096524 0 1 -82.398515 -52.547296 A 2.6740571 1.7339909 87.096524 0 1 -82.420332 -52.433982 A 2.6740571 1.7339909 87.096524 0 1 -82.445928 -52.322363 A 2.6740571 1.7339909 87.096524 0 1 -82.47444 -52.212866 A 2.6740571 1.7339909 87.096524 0 1 -82.506234 -52.105758 A 2.6740571 1.7339909 87.096524 0 1 -82.540944 -52.000773 A 2.6740571 1.7339909 87.096524 0 1 -82.579168 -51.8994 A 2.6740571 1.7339909 87.096524 0 1 -82.620309 -51.80015 A 2.6740571 1.7339909 87.096524 0 1 -82.663621 -51.704063 A 2.6740571 1.7339909 87.096524 0 1 -82.710448 -51.611587 A 2.6740571 1.7339909 87.096524 0 1 -82.760059 -51.522193 A 2.6740571 1.7339909 87.096524 0 1 -82.81171 -51.436921 A 2.6740571 1.7339909 87.096524 0 1 -82.866991 -51.355872 A 2.6740571 1.7339909 87.096524 0 1 -82.924561 -51.278599 A 2.6740571 1.7339909 87.096524 0 1 -82.983806 -51.205181 A 2.6740571 1.7339909 87.096524 0 1 -83.045455 -51.13615 A 2.6740571 1.7339909 87.096524 0 1 -83.109012 -51.072198 A 2.6740571 1.7339909 87.096524 0 1 -83.175222 -51.012287 A 2.6740571 1.7339909 87.096524 0 1 -83.242975 -50.95719 A 2.6740571 1.7339909 87.096524 0 1 -83.311659 -50.90699 A 2.6740571 1.7339909 87.096524 0 1 -83.382863 -50.861787 A 2.6740571 1.7339909 87.096524 0 1 -83.455246 -50.821134 A 2.6740571 1.7339909 87.096524 0 1 -83.528428 -50.786335 A 2.6740571 1.7339909 87.096524 0 1 -83.602788 -50.756086 A 2.6740571 1.7339909 87.096524 0 1 -83.67856 -50.731609 A 2.6740571 1.7339909 87.096524 0 1 -83.754284 -50.711844 A 2.6740571 1.7339909 87.096524 0 1 -83.83142 -50.697853 A 2.6740571 1.7339909 87.096524 0 1 -83.90899 -50.68945 A 2.6740571 1.7339909 87.096524 0 1 -83.986878 -50.686024 A 2.6740571 1.7339909 87.096524 0 1 -84.213866 -50.706747 A 2.6740571 1.7339909 87.096524 0 1 -84.439057 -50.772567 A 2.6740571 1.7339909 87.096524 0 1 -84.657682 -50.883175 A 2.6740571 1.7339909 87.096524 0 1 -84.865728 -51.035652 A 2.6740571 1.7339909 87.096524 0 1 -85.061623 -51.228326 A 2.6740571 1.7339909 87.096524 0 1 -85.239283 -51.457296 A 2.6740571 1.7339909 87.096524 0 1 -85.397646 -51.718626 A 2.6740571 1.7339909 87.096524 0 1 -85.533332 -52.007745 A 2.6740571 1.7339909 87.096524 0 1 -85.644299 -52.320531 A 2.6740571 1.7339909 87.096524 0 1 -85.728159 -52.651028 A 2.6740571 1.7339909 87.096524 0 1 -85.783748 -52.993116 A 2.6740571 1.7339909 87.096524 0 1 -85.810502 -53.342164 A 2.6740571 1.7339909 87.096524 0 1 -85.807024 -53.690829 A 2.6740571 1.7339909 87.096524 0 1 -85.773858 -54.033705 A 2.6740571 1.7339909 87.096524 0 1 -85.712277 -54.365919 A 2.6740571 1.7339909 87.096524 0 1 -85.622475 -54.680229 A 2.6740571 1.7339909 87.096524 0 1 -85.505725 -54.971762 A 2.6740571 1.7339909 87.096524 0 1 -85.365006 -55.236358 A 2.6740571 1.7339909 87.096524 0 1 -85.201971 -55.467838 A 2.6740571 1.7339909 87.096524 0 1 -85.019701 -55.664225 A 2.6740571 1.7339909 87.096524 0 1 -84.821307 -55.8204 A 2.6740571 1.7339909 87.096524 0 1 -84.609868 -55.934387 A 2.6740571 1.7339909 87.096524 0 1 -84.389558 -56.005006 A 2.6740571 1.7339909 87.096524 0 1 -84.163955 -56.029585 A 2.6740571 1.7339909 87.096524 0 1 -83.936967 -56.008862 A 2.6740571 1.7339909 87.096524 0 1 -83.711775 -55.943043 A 2.6740571 1.7339909 87.096524 0 1 -83.493515 -55.8327 z "
           transform="matrix(0.80360709,-0.59516018,0.57561993,0.81771737,0,0)" />
        <path
           id="path14"
           style="fill:#d8d300;fill-opacity:1;stroke:none;stroke-width:2.49559;stroke-linecap:round;stroke-linejoin:miter;stroke-miterlimit:4.6;stroke-dasharray:none;stroke-dashoffset:25.0961;stroke-opacity:0.619608"
           d="m -99.881021,68.953085 a 7.0322876,7.0322876 0 0 0 -1.002879,0.0125 7.0322876,7.0322876 0 0 0 -6.41805,7.596877 7.0322876,7.0322876 0 0 0 0.19256,1.113357 l -12.87086,9.531671 0.0553,0.07847 -0.0682,-0.09141 -0.88522,2.259053 -0.74927,2.268544 2.22195,-0.242765 2.15867,-0.378162 -0.1257,-0.189295 0.13773,0.195331 1.12903,-0.836096 0.93871,0.431198 1.03854,0.488553 -0.12658,-1.235821 -0.0664,-0.704577 1.05237,0.557536 1.28682,0.698115 -0.1569,-1.765763 -0.0646,-0.791684 1.46333,0.458367 0.33563,-1.126294 0.1988,-0.633866 0.10296,-0.0091 1.67906,-0.13755 -0.11232,-1.169847 -0.0428,-0.525202 1.15443,0.611442 1.28682,0.698112 -0.15689,-1.765763 -0.10341,-1.267295 0.85134,-0.630845 0.76353,0.987016 0.91998,-0.731747 0.5166,-0.39929 a 7.0322876,7.0322876 0 0 0 3.641599,0.673965 7.0322876,7.0322876 0 0 0 6.418042,-7.597307 7.0322876,7.0322876 0 0 0 -6.593662,-6.430481 z m 1.10585,1.944279 h 4.5e-4 a 2.6713562,1.7352399 52.95445 0 1 0.25495,8.62e-4 2.6713562,1.7352399 52.95445 0 1 0.26744,0.0414 2.6713562,1.7352399 52.95445 0 1 0.27502,0.08107 2.6713562,1.7352399 52.95445 0 1 0.27768,0.119874 2.6713562,1.7352399 52.95445 0 1 0.27591,0.155663 2.6713562,1.7352399 52.95445 0 1 0.26878,0.189296 2.6713562,1.7352399 52.95445 0 1 0.25763,0.220775 2.6713562,1.7352399 52.95445 0 1 0.24203,0.246645 2.6713562,1.7352399 52.95445 0 1 0.22197,0.269069 2.6713562,1.7352399 52.95445 0 1 0.0709,0.09659 2.6713562,1.7352399 52.95445 0 1 0.06775,0.09918 2.6713562,1.7352399 52.95445 0 1 0.06463,0.09961 2.6713562,1.7352399 52.95445 0 1 0.06196,0.102194 2.6713562,1.7352399 52.95445 0 1 0.05794,0.103057 2.6713562,1.7352399 52.95445 0 1 0.05482,0.104351 2.6713562,1.7352399 52.95445 0 1 0.05126,0.105212 2.6713562,1.7352399 52.95445 0 1 0.04769,0.105644 2.6713562,1.7352399 52.95445 0 1 0.04368,0.106506 2.6713562,1.7352399 52.95445 0 1 0.04012,0.106507 2.6713562,1.7352399 52.95445 0 1 0.0361,0.106507 2.6713562,1.7352399 52.95445 0 1 0.03254,0.106506 2.6713562,1.7352399 52.95445 0 1 0.02763,0.105644 2.6713562,1.7352399 52.95445 0 1 0.02407,0.105643 2.6713562,1.7352399 52.95445 0 1 0.0205,0.10435 2.6713562,1.7352399 52.95445 0 1 0.0156,0.103489 2.6713562,1.7352399 52.95445 0 1 0.01159,0.102625 2.6713562,1.7352399 52.95445 0 1 0.0076,0.100469 2.6713562,1.7352399 52.95445 0 1 0.0022,0.09918 2.6713562,1.7352399 52.95445 0 1 -0.0018,0.09745 2.6713562,1.7352399 52.95445 0 1 -0.0053,0.0953 2.6713562,1.7352399 52.95445 0 1 -0.0098,0.09314 2.6713562,1.7352399 52.95445 0 1 -0.01426,0.09012 2.6713562,1.7352399 52.95445 0 1 -0.01872,0.0884 2.6713562,1.7352399 52.95445 0 1 -0.02273,0.08538 2.6713562,1.7352399 52.95445 0 1 -0.0263,0.08193 2.6713562,1.7352399 52.95445 0 1 -0.0312,0.07934 2.6713562,1.7352399 52.95445 0 1 -0.03477,0.07632 2.6713562,1.7352399 52.95445 0 1 -0.03878,0.07201 2.6713562,1.7352399 52.95445 0 1 -0.04234,0.06899 2.6713562,1.7352399 52.95445 0 1 -0.0468,0.06511 2.6713562,1.7352399 52.95445 0 1 -0.04947,0.06123 2.6713562,1.7352399 52.95445 0 1 -0.05393,0.05735 2.6713562,1.7352399 52.95445 0 1 -0.0575,0.05304 2.6713562,1.7352399 52.95445 0 1 -0.06062,0.04916 2.6713562,1.7352399 52.95445 0 1 -0.19434,0.118149 2.6713562,1.7352399 52.95445 0 1 -0.21885,0.0802 2.6713562,1.7352399 52.95445 0 1 -0.23936,0.03967 2.6713562,1.7352399 52.95445 0 1 -0.25495,-8.62e-4 2.6713562,1.7352399 52.95445 0 1 -0.26833,-0.04096 2.6713562,1.7352399 52.95445 0 1 -0.27457,-0.0815 2.6713562,1.7352399 52.95445 0 1 -0.27769,-0.119443 2.6713562,1.7352399 52.95445 0 1 -0.27546,-0.155662 2.6713562,1.7352399 52.95445 0 1 -0.26922,-0.189728 2.6713562,1.7352399 52.95445 0 1 -0.25763,-0.220343 2.6713562,1.7352399 52.95445 0 1 -0.24158,-0.246647 2.6713562,1.7352399 52.95445 0 1 -0.22242,-0.269499 2.6713562,1.7352399 52.95445 0 1 -0.19791,-0.28718 2.6713562,1.7352399 52.95445 0 1 -0.17071,-0.300114 2.6713562,1.7352399 52.95445 0 1 -0.14174,-0.308308 2.6713562,1.7352399 52.95445 0 1 -0.10876,-0.310463 2.6713562,1.7352399 52.95445 0 1 -0.074,-0.307877 2.6713562,1.7352399 52.95445 0 1 -0.0392,-0.300115 2.6713562,1.7352399 52.95445 0 1 -0.002,-0.286317 2.6713562,1.7352399 52.95445 0 1 0.0334,-0.269069 2.6713562,1.7352399 52.95445 0 1 0.0695,-0.245783 2.6713562,1.7352399 52.95445 0 1 0.1043,-0.21905 2.6713562,1.7352399 52.95445 0 1 0.13639,-0.188866 2.6713562,1.7352399 52.95445 0 1 0.16715,-0.154368 2.6713562,1.7352399 52.95445 0 1 0.19434,-0.118149 2.6713562,1.7352399 52.95445 0 1 0.21885,-0.0802 2.6713562,1.7352399 52.95445 0 1 0.23891,-0.03967 z" />
      </g>
    </g>
  </g>
</svg>
