<?xml version="1.0" encoding="UTF-8" standalone="no"?>
<!-- Created with Inkscape (http://www.inkscape.org/) -->

<svg
   width="33.866665mm"
   height="33.866669mm"
   viewBox="0 0 33.866664 33.866669"
   version="1.1"
   id="svg1"
   inkscape:version="1.3 (0e150ed6c4, 2023-07-21)"
   sodipodi:docname="HUD_iconspack.svg"
   xmlns:inkscape="http://www.inkscape.org/namespaces/inkscape"
   xmlns:sodipodi="http://sodipodi.sourceforge.net/DTD/sodipodi-0.dtd"
   xmlns="http://www.w3.org/2000/svg"
   xmlns:svg="http://www.w3.org/2000/svg">
  <sodipodi:namedview
     id="namedview1"
     pagecolor="#505050"
     bordercolor="#ffffff"
     borderopacity="1"
     inkscape:showpageshadow="0"
     inkscape:pageopacity="0"
     inkscape:pagecheckerboard="1"
     inkscape:deskcolor="#505050"
     inkscape:document-units="mm"
     inkscape:zoom="0.99390268"
     inkscape:cx="6.0368083"
     inkscape:cy="198.71161"
     inkscape:window-width="1920"
     inkscape:window-height="1009"
     inkscape:window-x="1912"
     inkscape:window-y="-8"
     inkscape:window-maximized="1"
     inkscape:current-layer="g14">
    <inkscape:page
       x="-6.0430386e-07"
       y="0"
       width="33.866665"
       height="33.866669"
       id="page14"
       margin="0"
       bleed="0" />
  </sodipodi:namedview>
  <defs
     id="defs1" />
  <g
     inkscape:label="Layer 1 copy"
     inkscape:groupmode="layer"
     id="g2"
     transform="translate(124.04037,-79.603634)">
    <g
       id="g13"
       transform="translate(-0.19373682,2.3248419)"
       style="fill:#d8d300;fill-opacity:1">
      <g
         id="g14"
         transform="matrix(1.15937,0,0,1.1984339,17.648752,-1.7043653)"
         style="fill:#d8d300;fill-opacity:0.619681">
        <path
           id="rect4"
           style="fill:#d8d300;fill-opacity:0.0851064;stroke:none;stroke-width:2.49595;stroke-linecap:round;stroke-linejoin:miter;stroke-miterlimit:4.6;stroke-dasharray:none;stroke-dashoffset:25.0961;stroke-opacity:0.619608"
           d="m -83.278562,-58.053941 a 7.1185918,6.9490482 45 0 0 -0.827518,-0.587002 7.1185918,6.9490482 45 0 0 -9.623856,2.285803 7.1185918,6.9490482 45 0 0 -0.483556,1.009596 l -16.015998,-5.06e-4 3e-5,0.09599 -0.003,-0.114082 -2.0248,1.288921 -1.91907,1.377481 1.95724,1.127659 1.98343,0.981142 0.006,-0.226995 1.9e-4,0.239012 1.40491,6.2e-5 0.51954,0.905457 0.56818,1.010998 0.60803,-1.068763 0.35136,-0.605908 0.53977,1.074682 0.65059,1.327256 0.88837,-1.512797 0.40298,-0.674863 0.93301,1.239619 0.92304,-0.705546 0.52758,-0.391176 0.0894,0.05402 1.45259,0.889029 0.581711,-1.007238 0.267404,-0.447653 0.592217,1.178776 0.650596,1.327257 0.888369,-1.512798 0.645109,-1.080266 1.059591,-2.67e-4 0.05622,1.24796 1.173835,-0.04051 0.652461,-0.01342 a 7.1185918,6.9490482 45 0 0 2.590607,2.709727 7.1185918,6.9490482 45 0 0 9.624104,-2.286149 7.1185918,6.9490482 45 0 0 -1.690731,-9.094507 z m -0.214953,2.221241 3.64e-4,2.65e-4 a 2.6740571,1.7339909 87.096524 0 1 0.208047,0.152478 2.6740571,1.7339909 87.096524 0 1 0.194917,0.192489 2.6740571,1.7339909 87.096524 0 1 0.178273,0.228889 2.6740571,1.7339909 87.096524 0 1 0.158115,0.261677 2.6740571,1.7339909 87.096524 0 1 0.13605,0.289384 2.6740571,1.7339909 87.096524 0 1 0.110851,0.312175 2.6740571,1.7339909 87.096524 0 1 0.08361,0.330843 2.6740571,1.7339909 87.096524 0 1 0.05595,0.342353 2.6740571,1.7339909 87.096524 0 1 0.02664,0.348436 2.6740571,1.7339909 87.096524 0 1 0.0024,0.119834 2.6740571,1.7339909 87.096524 0 1 -0.0017,0.120056 2.6740571,1.7339909 87.096524 0 1 -0.0045,0.118545 2.6740571,1.7339909 87.096524 0 1 -0.0082,0.119032 2.6740571,1.7339909 87.096524 0 1 -0.01194,0.117338 2.6740571,1.7339909 87.096524 0 1 -0.01524,0.11652 2.6740571,1.7339909 87.096524 0 1 -0.01865,0.11509 2.6740571,1.7339909 87.096524 0 1 -0.02182,0.113314 2.6740571,1.7339909 87.096524 0 1 -0.0256,0.111619 2.6740571,1.7339909 87.096524 0 1 -0.02851,0.109497 2.6740571,1.7339909 87.096524 0 1 -0.03179,0.107108 2.6740571,1.7339909 87.096524 0 1 -0.03471,0.104985 2.6740571,1.7339909 87.096524 0 1 -0.03822,0.101373 2.6740571,1.7339909 87.096524 0 1 -0.04114,0.09925 2.6740571,1.7339909 87.096524 0 1 -0.04331,0.09609 2.6740571,1.7339909 87.096524 0 1 -0.04683,0.09248 2.6740571,1.7339909 87.096524 0 1 -0.04961,0.08939 2.6740571,1.7339909 87.096524 0 1 -0.05165,0.08527 2.6740571,1.7339909 87.096524 0 1 -0.05528,0.08105 2.6740571,1.7339909 87.096524 0 1 -0.05757,0.07727 2.6740571,1.7339909 87.096524 0 1 -0.05925,0.07342 2.6740571,1.7339909 87.096524 0 1 -0.06165,0.06903 2.6740571,1.7339909 87.096524 0 1 -0.06356,0.06395 2.6740571,1.7339909 87.096524 0 1 -0.06621,0.05991 2.6740571,1.7339909 87.096524 0 1 -0.06775,0.0551 2.6740571,1.7339909 87.096524 0 1 -0.06868,0.0502 2.6740571,1.7339909 87.096524 0 1 -0.0712,0.0452 2.6740571,1.7339909 87.096524 0 1 -0.07238,0.04065 2.6740571,1.7339909 87.096524 0 1 -0.07318,0.0348 2.6740571,1.7339909 87.096524 0 1 -0.07436,0.03025 2.6740571,1.7339909 87.096524 0 1 -0.07577,0.02448 2.6740571,1.7339909 87.096524 0 1 -0.07572,0.01976 2.6740571,1.7339909 87.096524 0 1 -0.07714,0.01399 2.6740571,1.7339909 87.096524 0 1 -0.07757,0.0084 2.6740571,1.7339909 87.096524 0 1 -0.07789,0.0034 2.6740571,1.7339909 87.096524 0 1 -0.226988,-0.02072 2.6740571,1.7339909 87.096524 0 1 -0.225191,-0.06582 2.6740571,1.7339909 87.096524 0 1 -0.218625,-0.110608 2.6740571,1.7339909 87.096524 0 1 -0.208046,-0.152477 2.6740571,1.7339909 87.096524 0 1 -0.195895,-0.192674 2.6740571,1.7339909 87.096524 0 1 -0.17766,-0.22897 2.6740571,1.7339909 87.096524 0 1 -0.158363,-0.26133 2.6740571,1.7339909 87.096524 0 1 -0.135686,-0.289119 2.6740571,1.7339909 87.096524 0 1 -0.110967,-0.312786 2.6740571,1.7339909 87.096524 0 1 -0.08386,-0.330497 2.6740571,1.7339909 87.096524 0 1 -0.05559,-0.342088 2.6740571,1.7339909 87.096524 0 1 -0.02675,-0.349048 2.6740571,1.7339909 87.096524 0 1 0.0035,-0.348665 2.6740571,1.7339909 87.096524 0 1 0.03317,-0.342876 2.6740571,1.7339909 87.096524 0 1 0.06158,-0.332214 2.6740571,1.7339909 87.096524 0 1 0.0898,-0.31431 2.6740571,1.7339909 87.096524 0 1 0.11675,-0.291533 2.6740571,1.7339909 87.096524 0 1 0.140719,-0.264596 2.6740571,1.7339909 87.096524 0 1 0.163035,-0.23148 2.6740571,1.7339909 87.096524 0 1 0.18227,-0.196387 2.6740571,1.7339909 87.096524 0 1 0.198394,-0.156175 2.6740571,1.7339909 87.096524 0 1 0.211439,-0.113987 2.6740571,1.7339909 87.096524 0 1 0.22031,-0.07062 2.6740571,1.7339909 87.096524 0 1 0.225603,-0.02458 2.6740571,1.7339909 87.096524 0 1 0.226988,0.02072 2.6740571,1.7339909 87.096524 0 1 0.225192,0.06582 2.6740571,1.7339909 87.096524 0 1 0.21826,0.110343 z"
           transform="matrix(0.80360709,-0.59516018,0.57561993,0.81771737,0,0)" />
        <path
           id="path14"
           style="fill:#d8d300;fill-opacity:1;stroke:none;stroke-width:2.49559;stroke-linecap:round;stroke-linejoin:miter;stroke-miterlimit:4.6;stroke-dasharray:none;stroke-dashoffset:25.0961;stroke-opacity:0.619608"
           d="m -99.881021,68.953085 a 7.0322876,7.0322876 0 0 0 -1.002879,0.0125 7.0322876,7.0322876 0 0 0 -6.41805,7.596877 7.0322876,7.0322876 0 0 0 0.19256,1.113357 l -12.87086,9.531671 0.0553,0.07847 -0.0682,-0.09141 -0.88522,2.259053 -0.74927,2.268544 2.22195,-0.242765 2.15867,-0.378162 -0.1257,-0.189295 0.13773,0.195331 1.12903,-0.836096 0.93871,0.431198 1.03854,0.488553 -0.12658,-1.235821 -0.0664,-0.704577 1.05237,0.557536 1.28682,0.698115 -0.1569,-1.765763 -0.0646,-0.791684 1.46333,0.458367 0.33563,-1.126294 0.1988,-0.633866 0.10296,-0.0091 1.67906,-0.13755 -0.11232,-1.169847 -0.0428,-0.525202 1.15443,0.611442 1.28682,0.698112 -0.15689,-1.765763 -0.10341,-1.267295 0.85134,-0.630845 0.76353,0.987016 0.91998,-0.731747 0.5166,-0.39929 a 7.0322876,7.0322876 0 0 0 3.641599,0.673965 7.0322876,7.0322876 0 0 0 6.418042,-7.597307 7.0322876,7.0322876 0 0 0 -6.593662,-6.430481 z m 1.10585,1.944279 h 4.5e-4 a 2.6713562,1.7352399 52.95445 0 1 0.25495,8.62e-4 2.6713562,1.7352399 52.95445 0 1 0.26744,0.0414 2.6713562,1.7352399 52.95445 0 1 0.27502,0.08107 2.6713562,1.7352399 52.95445 0 1 0.27768,0.119874 2.6713562,1.7352399 52.95445 0 1 0.27591,0.155663 2.6713562,1.7352399 52.95445 0 1 0.26878,0.189296 2.6713562,1.7352399 52.95445 0 1 0.25763,0.220775 2.6713562,1.7352399 52.95445 0 1 0.24203,0.246645 2.6713562,1.7352399 52.95445 0 1 0.22197,0.269069 2.6713562,1.7352399 52.95445 0 1 0.0709,0.09659 2.6713562,1.7352399 52.95445 0 1 0.06775,0.09918 2.6713562,1.7352399 52.95445 0 1 0.06463,0.09961 2.6713562,1.7352399 52.95445 0 1 0.06196,0.102194 2.6713562,1.7352399 52.95445 0 1 0.05794,0.103057 2.6713562,1.7352399 52.95445 0 1 0.05482,0.104351 2.6713562,1.7352399 52.95445 0 1 0.05126,0.105212 2.6713562,1.7352399 52.95445 0 1 0.04769,0.105644 2.6713562,1.7352399 52.95445 0 1 0.04368,0.106506 2.6713562,1.7352399 52.95445 0 1 0.04012,0.106507 2.6713562,1.7352399 52.95445 0 1 0.0361,0.106507 2.6713562,1.7352399 52.95445 0 1 0.03254,0.106506 2.6713562,1.7352399 52.95445 0 1 0.02763,0.105644 2.6713562,1.7352399 52.95445 0 1 0.02407,0.105643 2.6713562,1.7352399 52.95445 0 1 0.0205,0.10435 2.6713562,1.7352399 52.95445 0 1 0.0156,0.103489 2.6713562,1.7352399 52.95445 0 1 0.01159,0.102625 2.6713562,1.7352399 52.95445 0 1 0.0076,0.100469 2.6713562,1.7352399 52.95445 0 1 0.0022,0.09918 2.6713562,1.7352399 52.95445 0 1 -0.0018,0.09745 2.6713562,1.7352399 52.95445 0 1 -0.0053,0.0953 2.6713562,1.7352399 52.95445 0 1 -0.0098,0.09314 2.6713562,1.7352399 52.95445 0 1 -0.01426,0.09012 2.6713562,1.7352399 52.95445 0 1 -0.01872,0.0884 2.6713562,1.7352399 52.95445 0 1 -0.02273,0.08538 2.6713562,1.7352399 52.95445 0 1 -0.0263,0.08193 2.6713562,1.7352399 52.95445 0 1 -0.0312,0.07934 2.6713562,1.7352399 52.95445 0 1 -0.03477,0.07632 2.6713562,1.7352399 52.95445 0 1 -0.03878,0.07201 2.6713562,1.7352399 52.95445 0 1 -0.04234,0.06899 2.6713562,1.7352399 52.95445 0 1 -0.0468,0.06511 2.6713562,1.7352399 52.95445 0 1 -0.04947,0.06123 2.6713562,1.7352399 52.95445 0 1 -0.05393,0.05735 2.6713562,1.7352399 52.95445 0 1 -0.0575,0.05304 2.6713562,1.7352399 52.95445 0 1 -0.06062,0.04916 2.6713562,1.7352399 52.95445 0 1 -0.19434,0.118149 2.6713562,1.7352399 52.95445 0 1 -0.21885,0.0802 2.6713562,1.7352399 52.95445 0 1 -0.23936,0.03967 2.6713562,1.7352399 52.95445 0 1 -0.25495,-8.62e-4 2.6713562,1.7352399 52.95445 0 1 -0.26833,-0.04096 2.6713562,1.7352399 52.95445 0 1 -0.27457,-0.0815 2.6713562,1.7352399 52.95445 0 1 -0.27769,-0.119443 2.6713562,1.7352399 52.95445 0 1 -0.27546,-0.155662 2.6713562,1.7352399 52.95445 0 1 -0.26922,-0.189728 2.6713562,1.7352399 52.95445 0 1 -0.25763,-0.220343 2.6713562,1.7352399 52.95445 0 1 -0.24158,-0.246647 2.6713562,1.7352399 52.95445 0 1 -0.22242,-0.269499 2.6713562,1.7352399 52.95445 0 1 -0.19791,-0.28718 2.6713562,1.7352399 52.95445 0 1 -0.17071,-0.300114 2.6713562,1.7352399 52.95445 0 1 -0.14174,-0.308308 2.6713562,1.7352399 52.95445 0 1 -0.10876,-0.310463 2.6713562,1.7352399 52.95445 0 1 -0.074,-0.307877 2.6713562,1.7352399 52.95445 0 1 -0.0392,-0.300115 2.6713562,1.7352399 52.95445 0 1 -0.002,-0.286317 2.6713562,1.7352399 52.95445 0 1 0.0334,-0.269069 2.6713562,1.7352399 52.95445 0 1 0.0695,-0.245783 2.6713562,1.7352399 52.95445 0 1 0.1043,-0.21905 2.6713562,1.7352399 52.95445 0 1 0.13639,-0.188866 2.6713562,1.7352399 52.95445 0 1 0.16715,-0.154368 2.6713562,1.7352399 52.95445 0 1 0.19434,-0.118149 2.6713562,1.7352399 52.95445 0 1 0.21885,-0.0802 2.6713562,1.7352399 52.95445 0 1 0.23891,-0.03967 z" />
      </g>
    </g>
  </g>
</svg>
