# Blender 4.3.2
# www.blender.org
o Cube
v -0.126181 -3.271059 1.549634
v -0.126181 3.271058 1.549634
v -0.126181 -3.271059 -1.549634
v -0.126181 3.271058 -1.549634
v 0.119111 -3.271059 1.549634
v 0.119111 3.271058 1.549634
v 0.119111 -3.271059 -1.549634
v 0.119111 3.271058 -1.549634
v -0.126181 -3.271059 1.358832
v -0.126181 3.271058 1.358832
v 0.119111 -3.271059 1.358832
v 0.119111 3.271058 1.358832
v -0.126181 3.271058 -1.359251
v 0.119111 -3.271059 -1.359251
v -0.126181 -3.271059 -1.359251
v 0.119111 3.271058 -1.359251
v -0.126181 0.000000 1.549634
v -0.126181 0.000000 -1.549634
v 0.119111 0.000000 -1.549634
v 0.119111 0.000000 1.549634
v 0.119111 0.000000 1.358832
v -0.126181 0.000000 1.358832
v 0.119111 0.000000 -1.359251
v -0.126181 0.000000 -1.359251
v -0.126181 -2.980892 -1.549634
v 0.119111 -2.980892 -1.549634
v 0.119111 -2.980892 1.549634
v 0.119111 -2.980892 1.358832
v -0.126181 -2.980892 1.358832
v 0.119111 -2.980892 -1.359251
v -0.126181 -2.980892 -1.359251
v -0.126181 -2.980892 1.549634
v -0.126181 3.041047 1.549634
v -0.126181 3.041047 -1.549634
v 0.119111 3.041047 -1.549634
v 0.119111 3.041047 1.549634
v 0.119111 3.041047 1.358832
v -0.126181 3.041047 1.358832
v 0.119111 3.041047 -1.359251
v -0.126181 3.041047 -1.359251
v 0.149974 -2.980892 -1.549634
v 0.149974 -3.271059 -1.549634
v 0.149974 -3.271059 -1.359251
v 0.149974 3.271058 1.358832
v 0.149974 3.271058 1.549634
v 0.149974 -2.980892 1.549634
v 0.149974 -3.271059 1.549634
v 0.149974 -3.271059 1.358832
v 0.149974 3.271058 -1.359251
v 0.149974 -2.980892 1.358832
v 0.149974 3.271058 -1.549634
v 0.149974 -2.980892 -1.359251
v 0.149974 3.041047 -1.549634
v 0.149974 0.000000 -1.549634
v 0.149974 3.041047 1.549634
v 0.149974 0.000000 1.549634
v 0.149974 3.041047 1.358832
v 0.149974 0.000000 1.358832
v 0.149974 3.041047 -1.359251
v 0.149974 0.000000 -1.359251
v -0.152847 -3.271059 1.358832
v -0.152847 -3.271059 1.549634
v -0.152847 3.041047 1.549634
v -0.152847 3.271058 1.549634
v -0.152847 3.271058 -1.359251
v -0.152847 3.271058 -1.549634
v -0.152847 -3.271059 -1.359251
v -0.152847 3.271058 1.358832
v -0.152847 -2.980892 1.358832
v -0.152847 -2.980892 -1.359251
v -0.152847 -2.980892 1.549634
v -0.152847 0.000000 1.549634
v -0.152847 3.041047 -1.549634
v -0.152847 0.000000 -1.549634
v -0.152847 3.041047 1.358832
v -0.152847 0.000000 1.358832
v -0.152847 3.041047 -1.359251
v -0.152847 0.000000 -1.359251
v -0.152847 -2.980892 -1.549634
v -0.126181 0.147210 -1.549634
v 0.119111 0.147210 -1.549634
v 0.119111 0.147210 1.549634
v 0.119111 0.147210 1.358832
v -0.126181 0.147210 1.358832
v 0.119111 0.147210 -1.359251
v -0.126181 0.147210 -1.359251
v -0.126181 0.147210 1.549634
v 0.149974 0.147210 -1.549634
v 0.149974 0.147210 1.549634
v 0.149974 0.147210 1.358832
v 0.149974 0.147210 -1.359251
v -0.152847 0.147210 -1.549634
v -0.152847 0.147210 1.358832
v -0.152847 0.147210 -1.359251
v -0.152847 0.147210 1.549634
v -0.126181 -3.271059 -0.741516
v 0.119111 3.271058 -0.741516
v -0.126181 3.271058 -0.741516
v 0.119111 -3.271059 -0.741516
v -0.126181 0.000000 -0.741516
v 0.119111 0.000000 -0.741516
v 0.119111 -2.980892 -0.741516
v -0.126181 -2.980892 -0.741516
v -0.126181 3.041047 -0.741516
v 0.119111 3.041047 -0.741516
v 0.149974 3.271058 -0.741516
v 0.149974 -3.271059 -0.741516
v 0.149974 -2.980892 -0.741516
v 0.149974 3.041047 -0.741516
v -0.152847 -3.271059 -0.741516
v -0.152847 3.271058 -0.741516
v -0.152847 -2.980892 -0.741516
v -0.152847 3.041047 -0.741516
v 0.119111 0.147210 -0.741516
v -0.126181 0.147210 -0.741516
v -0.216085 0.147210 -1.549634
v -0.216085 0.000000 -1.549634
v -0.216085 0.147210 -1.359251
v -0.216085 0.000000 -1.359251
v -0.184466 0.000000 -1.549634
v -0.184466 0.147210 -1.549634
v -0.184466 0.000000 -1.359251
v -0.184466 0.147210 -1.359251
v -0.211580 0.126239 -0.419644
v -0.211580 0.020972 -0.419644
v -0.188970 0.020972 -0.419644
v -0.188970 0.126239 -0.419644
v 0.220807 0.147210 -1.549634
v 0.220807 0.000000 -1.549634
v 0.220807 0.147210 -1.359251
v 0.220807 0.000000 -1.359251
v 0.185390 0.000000 -1.359251
v 0.185390 0.147210 -1.359251
v 0.185390 0.147210 -1.549634
v 0.185390 0.000000 -1.549634
v 0.213106 0.115200 -0.625523
v 0.213106 0.032010 -0.625523
v 0.193091 0.032010 -0.625523
v 0.193091 0.115200 -0.625523
vn -0.0000 -1.0000 -0.0000
vn -0.0000 -0.0000 -1.0000
vn -0.0000 -0.0000 1.0000
vn -0.0000 1.0000 -0.0000
vn -1.0000 -0.0000 -0.0000
vn 1.0000 -0.0000 -0.0000
vn 0.9999 -0.0000 0.0105
vn -0.0000 -0.9998 0.0223
vn -0.0000 0.9998 0.0223
vn -1.0000 -0.0000 0.0048
vn 1.0000 -0.0000 0.0048
vn -0.0000 -0.9990 0.0436
vn -0.9999 -0.0000 0.0105
vn -0.0000 0.9990 0.0436
vt 0.491455 0.384476
vt 0.308386 0.384476
vt 0.308386 0.355110
vt 0.491455 0.355110
vt 0.016704 0.389337
vt 0.007207 0.389337
vt 0.007207 0.119202
vt 0.016704 0.119202
vt 0.860843 0.518933
vt 0.860843 0.395847
vt 0.894832 0.395847
vt 0.894832 0.518933
vt 0.301253 0.306708
vt 0.291756 0.306708
vt 0.291756 0.036573
vt 0.301253 0.036573
vt 0.308386 0.654611
vt 0.291756 0.654611
vt 0.291756 0.384476
vt 0.260711 0.802261
vt 0.260711 0.532125
vt 0.277342 0.532125
vt 0.277342 0.802261
vt 0.077643 0.802261
vt 0.077643 0.532125
vt 0.491455 0.654611
vt 0.860843 0.389768
vt 0.860843 0.270277
vt 0.894832 0.270277
vt 0.894832 0.389768
vt 0.968810 0.132777
vt 0.968810 0.255863
vt 0.939444 0.255863
vt 0.939444 0.132777
vt 0.549910 0.306708
vt 0.561891 0.306708
vt 0.561891 0.340696
vt 0.549910 0.340696
vt 0.561891 0.384476
vt 0.561891 0.654611
vt 0.545297 0.654611
vt 0.545297 0.384476
vt 0.007207 0.802261
vt 0.007207 0.532125
vt 0.023801 0.532125
vt 0.023801 0.802261
vt 0.968810 0.126698
vt 0.939444 0.126698
vt 0.474817 0.951669
vt 0.474817 0.828583
vt 0.528658 0.828583
vt 0.528658 0.951669
vt 0.426823 0.306708
vt 0.426823 0.340696
vt 0.007207 0.502759
vt 0.023801 0.502759
vt 0.630145 0.824961
vt 0.630145 0.701875
vt 0.813207 0.701875
vt 0.813207 0.824961
vt 0.426823 0.036573
vt 0.549910 0.036573
vt 0.420745 0.306708
vt 0.420745 0.340696
vt 0.265361 0.389337
vt 0.142274 0.389337
vt 0.142274 0.119202
vt 0.265361 0.119202
vt 0.016704 0.418703
vt 0.007207 0.418703
vt 0.117575 0.867256
vt 0.105594 0.867256
vt 0.105594 0.850662
vt 0.117575 0.850662
vt 0.277342 0.389337
vt 0.277342 0.119202
vt 0.023801 0.836249
vt 0.007207 0.836249
vt 0.561891 0.036573
vt 0.142274 0.085214
vt 0.265361 0.085214
vt 0.957647 0.453345
vt 0.957647 0.270277
vt 0.987013 0.270277
vt 0.987013 0.453345
vt 0.277342 0.836249
vt 0.260711 0.836249
vt 0.291756 0.007207
vt 0.301253 0.007207
vt 0.474817 0.822504
vt 0.474817 0.703013
vt 0.528658 0.703013
vt 0.528658 0.822504
vt 0.136196 0.119202
vt 0.016704 0.085214
vt 0.136196 0.085214
vt 0.420745 0.036573
vt 0.420745 0.007207
vt 0.630145 0.695796
vt 0.630145 0.576305
vt 0.813207 0.576305
vt 0.813207 0.695796
vt 0.077643 0.836249
vt 0.136196 0.389337
vt 0.064785 0.880028
vt 0.048191 0.880028
vt 0.048191 0.850662
vt 0.064785 0.850662
vt 0.829800 0.016704
vt 0.829800 0.007207
vt 0.846430 0.007207
vt 0.846430 0.016704
vt 0.646738 0.016704
vt 0.646738 0.007207
vt 0.576305 0.016704
vt 0.576305 0.007207
vt 0.592898 0.007207
vt 0.592898 0.016704
vt 0.576305 0.265361
vt 0.576305 0.142274
vt 0.592898 0.142274
vt 0.592898 0.265361
vt 0.829800 0.265361
vt 0.829800 0.142274
vt 0.846430 0.142274
vt 0.846430 0.265361
vt 0.829800 0.277342
vt 0.846430 0.277342
vt 0.646738 0.277342
vt 0.646738 0.265361
vt 0.576305 0.277342
vt 0.592898 0.277342
vt 0.576305 0.136196
vt 0.592898 0.136196
vt 0.829800 0.136196
vt 0.846430 0.136196
vt 0.007207 0.085214
vt 0.301253 0.340696
vt 0.291756 0.340696
vt 0.943233 0.324119
vt 0.943233 0.507187
vt 0.909245 0.507187
vt 0.909245 0.324119
vt 0.949014 0.759373
vt 0.949014 0.813215
vt 0.915025 0.813215
vt 0.915025 0.759373
vt 0.900612 0.695796
vt 0.900612 0.701875
vt 0.866624 0.701875
vt 0.866624 0.695796
vt 0.900612 0.824961
vt 0.866624 0.824961
vt 0.277342 0.085214
vt 0.545297 0.688599
vt 0.491455 0.688599
vt 0.308386 0.688599
vt 0.291756 0.688599
vt 0.561891 0.688599
vt 0.829836 0.301253
vt 0.829836 0.291756
vt 0.846430 0.291756
vt 0.846430 0.301253
vt 0.576305 0.301253
vt 0.576305 0.291756
vt 0.592935 0.291756
vt 0.592935 0.301253
vt 0.775996 0.301253
vt 0.775996 0.291756
vt 0.576305 0.549910
vt 0.576305 0.426823
vt 0.592935 0.426823
vt 0.592935 0.549910
vt 0.543071 0.826099
vt 0.543071 0.703013
vt 0.559665 0.703013
vt 0.559665 0.826099
vt 0.576305 0.561891
vt 0.592935 0.561891
vt 0.775996 0.561891
vt 0.775996 0.549910
vt 0.829836 0.549910
vt 0.829836 0.561891
vt 0.576305 0.420745
vt 0.592935 0.420745
vt 0.829836 0.420745
vt 0.846430 0.420745
vt 0.079199 0.850662
vt 0.091180 0.850662
vt 0.091180 0.880028
vt 0.079199 0.880028
vt 0.077643 0.502759
vt 0.860843 0.126698
vt 0.860843 0.007207
vt 0.890209 0.007207
vt 0.890209 0.126698
vt 0.860843 0.255863
vt 0.860843 0.132777
vt 0.890209 0.132777
vt 0.890209 0.255863
vt 0.260711 0.502759
vt 0.277342 0.502759
vt 0.426823 0.007207
vt 0.549910 0.007207
vt 0.561891 0.007207
vt 0.142274 0.418703
vt 0.136196 0.418703
vt 0.265361 0.418703
vt 0.963427 0.630147
vt 0.963427 0.576305
vt 0.992793 0.576305
vt 0.992793 0.630147
vt 0.291756 0.355110
vt 0.136196 0.453524
vt 0.142274 0.453524
vt 0.142274 0.488346
vt 0.136196 0.488346
vt 0.900612 0.576305
vt 0.866624 0.576305
vt 0.013285 0.914687
vt 0.007207 0.914687
vt 0.008529 0.850662
vt 0.011964 0.850662
vt 0.968810 0.007207
vt 0.939444 0.007207
vt 0.291756 0.828583
vt 0.291756 0.822504
vt 0.576305 0.701875
vt 0.576305 0.695796
vt 0.963427 0.813215
vt 0.992793 0.813215
vt 0.949014 0.576305
vt 0.915025 0.576305
vt 0.943233 0.270277
vt 0.909245 0.270277
vt 0.576305 0.576305
vt 0.291756 0.703013
vt 0.957647 0.507187
vt 0.987013 0.507187
vt 0.576305 0.824961
vt 0.291756 0.951669
vt 0.545297 0.355110
vt 0.935337 0.855968
vt 0.929259 0.855968
vt 0.929259 0.839375
vt 0.935337 0.839375
vt 0.611126 0.937867
vt 0.611126 0.921273
vt 0.645948 0.921273
vt 0.645948 0.937867
vt 0.695183 0.855969
vt 0.695183 0.839375
vt 0.730004 0.839375
vt 0.730004 0.855969
vt 0.616087 0.839375
vt 0.640987 0.839375
vt 0.925031 0.126698
vt 0.925031 0.132777
vt 0.660361 0.855969
vt 0.660361 0.839375
vt 0.576305 0.937867
vt 0.576305 0.921273
vt 0.865190 0.558247
vt 0.860843 0.558247
vt 0.860843 0.533347
vt 0.865190 0.533347
vt 0.725044 0.937867
vt 0.700143 0.937867
vt 0.934471 0.937905
vt 0.930125 0.937905
vt 0.543071 0.840513
vt 0.549150 0.840513
vt 0.548284 0.922450
vt 0.543937 0.922450
vt 0.013285 0.931280
vt 0.007207 0.931280
vt 0.783421 0.839374
vt 0.783421 0.855968
vt 0.744418 0.855968
vt 0.744418 0.839374
vt 0.875841 0.903329
vt 0.875841 0.919923
vt 0.836838 0.919923
vt 0.836838 0.903329
vt 0.142274 0.046210
vt 0.136196 0.046210
vt 0.136196 0.007207
vt 0.142274 0.007207
vt 0.914845 0.903329
vt 0.914845 0.919923
vt 0.822425 0.839374
vt 0.822425 0.855968
vt 0.827620 0.701875
vt 0.827620 0.695796
vt 0.131989 0.850662
vt 0.135424 0.850662
vt 0.135424 0.872704
vt 0.131989 0.872704
vt 0.845319 0.839374
vt 0.867360 0.839374
vt 0.033778 0.914686
vt 0.027699 0.914686
vt 0.029021 0.850662
vt 0.032456 0.850662
vt 0.774940 0.919923
vt 0.752899 0.919923
s 0
f 96/1/1 9/2/1 61/3/1 110/4/1
f 34/5/2 4/6/2 8/7/2 35/8/2
f 28/9/2 21/10/2 58/11/2 50/12/2
f 36/13/3 6/14/3 2/15/3 33/16/3
f 9/2/1 11/17/1 5/18/1 1/19/1
f 12/20/4 10/21/4 2/22/4 6/23/4
f 97/24/4 98/25/4 10/21/4 12/20/4
f 96/1/1 99/26/1 11/17/1 9/2/1
f 83/27/2 37/28/2 57/29/2 90/30/2
f 22/31/2 29/32/2 69/33/2 76/34/2
f 27/35/3 5/36/3 47/37/3 46/38/3
f 3/39/1 7/40/1 14/41/1 15/42/1
f 8/43/4 4/44/4 13/45/4 16/46/4
f 84/47/2 22/31/2 76/34/2 93/48/2
f 103/49/5 100/50/5 24/51/5 31/52/5
f 20/53/3 27/35/3 46/38/3 56/54/3
f 13/45/4 4/44/4 66/55/4 65/56/4
f 102/57/6 101/58/6 21/59/6 28/60/6
f 27/35/3 20/53/3 17/61/3 32/62/3
f 82/63/3 20/53/3 56/54/3 89/64/3
f 25/65/2 18/66/2 19/67/2 26/68/2
f 4/6/2 34/5/2 73/69/2 66/70/2
f 15/71/5 31/72/5 25/73/5 3/74/5
f 3/75/2 25/65/2 26/68/2 7/76/2
f 8/43/4 16/46/4 49/77/4 51/78/4
f 5/36/3 27/35/3 32/62/3 1/79/3
f 26/68/2 19/67/2 54/80/2 41/81/2
f 104/82/1 38/83/1 75/84/1 113/85/1
f 12/20/4 6/23/4 45/86/4 44/87/4
f 33/16/3 2/15/3 64/88/3 63/89/3
f 115/90/5 104/91/5 40/92/5 86/93/5
f 81/94/2 35/8/2 53/95/2 88/96/2
f 87/97/3 33/16/3 63/89/3 95/98/3
f 114/99/6 105/100/6 37/101/6 83/102/6
f 82/63/3 36/13/3 33/16/3 87/97/3
f 97/24/4 12/20/4 44/87/4 106/103/4
f 80/104/2 34/5/2 35/8/2 81/94/2
f 25/105/1 31/106/1 70/107/1 79/108/1
f 57/109/6 44/110/6 45/111/6 55/112/6
f 109/113/6 106/114/6 44/110/6 57/109/6
f 53/115/6 51/116/6 49/117/6 59/118/6
f 41/119/6 54/120/6 60/121/6 52/122/6
f 50/123/6 58/124/6 56/125/6 46/126/6
f 48/127/6 50/123/6 46/126/6 47/128/6
f 107/129/6 108/130/6 50/123/6 48/127/6
f 42/131/6 41/119/6 52/122/6 43/132/6
f 88/133/6 53/115/6 59/118/6 91/134/6
f 90/135/6 57/109/6 55/112/6 89/136/6
f 35/8/2 8/7/2 51/137/2 53/95/2
f 6/14/3 36/13/3 55/138/3 45/139/3
f 102/140/4 28/141/4 50/142/4 108/143/4
f 105/144/1 39/145/1 59/146/1 109/147/1
f 85/148/3 23/149/3 60/150/3 91/151/3
f 23/149/3 30/152/3 52/153/3 60/150/3
f 7/76/2 26/68/2 41/81/2 42/154/2
f 99/26/1 14/41/1 43/155/1 107/156/1
f 5/18/1 11/17/1 48/157/1 47/158/1
f 14/41/1 7/40/1 42/159/1 43/155/1
f 77/160/5 65/161/5 66/162/5 73/163/5
f 63/164/5 64/165/5 68/166/5 75/167/5
f 113/168/5 111/169/5 65/161/5 77/160/5
f 71/170/5 72/171/5 76/172/5 69/173/5
f 70/174/5 78/175/5 74/176/5 79/177/5
f 62/178/5 71/170/5 69/173/5 61/179/5
f 110/180/5 112/181/5 70/182/5 67/183/5
f 95/184/5 63/164/5 75/167/5 93/185/5
f 94/186/5 77/160/5 73/163/5 92/187/5
f 31/188/2 15/189/2 67/190/2 70/191/2
f 98/25/4 13/45/4 65/56/4 111/192/4
f 86/193/3 40/194/3 77/195/3 94/196/3
f 31/197/3 24/198/3 78/199/3 70/200/3
f 2/22/4 10/21/4 68/201/4 64/202/4
f 32/62/3 17/61/3 72/203/3 71/204/3
f 1/79/3 32/62/3 71/204/3 62/205/3
f 80/104/2 18/66/2 74/206/2 92/207/2
f 18/66/2 25/65/2 79/208/2 74/206/2
f 103/209/4 31/210/4 70/211/4 112/212/4
f 9/2/1 1/19/1 62/213/1 61/3/1
f 34/5/2 80/104/2 92/207/2 73/69/2
f 24/198/3 86/193/3 94/196/3 78/199/3
f 121/214/2 120/215/2 117/216/2 116/217/2
f 72/171/5 95/184/5 93/185/5 76/172/5
f 39/218/3 85/148/3 91/151/3 59/219/3
f 58/124/6 90/135/6 89/136/6 56/125/6
f 131/220/7 130/221/7 136/222/7 137/223/7
f 18/66/2 80/104/2 81/94/2 19/67/2
f 20/53/3 82/63/3 87/97/3 17/61/3
f 101/58/6 114/99/6 83/102/6 21/59/6
f 17/61/3 87/97/3 95/98/3 72/203/3
f 19/67/2 81/94/2 88/96/2 54/80/2
f 100/50/5 115/90/5 86/93/5 24/51/5
f 36/13/3 82/63/3 89/64/3 55/138/3
f 38/224/2 84/47/2 93/48/2 75/225/2
f 21/10/2 83/27/2 90/30/2 58/11/2
f 22/226/5 84/227/5 115/90/5 100/50/5
f 23/228/6 85/229/6 114/99/6 101/58/6
f 29/230/4 103/209/4 112/212/4 69/231/4
f 10/21/4 98/25/4 111/192/4 68/201/4
f 61/179/5 69/173/5 112/181/5 110/180/5
f 75/167/5 68/166/5 111/169/5 113/168/5
f 11/17/1 99/26/1 107/156/1 48/157/1
f 37/232/1 105/144/1 109/147/1 57/233/1
f 30/234/4 102/140/4 108/143/4 52/235/4
f 43/132/6 52/122/6 108/130/6 107/129/6
f 59/118/6 49/117/6 106/114/6 109/113/6
f 16/46/4 97/24/4 106/103/4 49/77/4
f 85/229/6 39/236/6 105/100/6 114/99/6
f 84/227/5 38/237/5 104/91/5 115/90/5
f 40/238/1 104/82/1 113/85/1 77/239/1
f 30/240/6 23/228/6 101/58/6 102/57/6
f 29/241/5 22/226/5 100/50/5 103/49/5
f 15/42/1 14/41/1 99/26/1 96/1/1
f 16/46/4 13/45/4 98/25/4 97/24/4
f 15/42/1 96/1/1 110/4/1 67/242/1
f 119/243/5 118/244/5 116/245/5 117/246/5
f 120/247/1 122/248/1 119/249/1 117/250/1
f 123/251/4 121/252/4 116/253/4 118/254/4
f 119/249/8 122/248/8 126/255/8 125/256/8
f 78/199/3 94/196/3 123/257/3 122/258/3
f 94/259/4 92/260/4 121/252/4 123/251/4
f 74/261/1 78/262/1 122/248/1 120/247/1
f 92/207/2 74/206/2 120/215/2 121/214/2
f 126/263/3 127/264/3 124/265/3 125/266/3
f 123/251/9 118/254/9 124/267/9 127/268/9
f 118/244/10 119/243/10 125/269/10 124/270/10
f 122/271/11 123/272/11 127/273/11 126/274/11
f 129/275/6 128/276/6 130/221/6 131/220/6
f 134/277/4 133/278/4 130/279/4 128/280/4
f 132/281/1 135/282/1 129/283/1 131/284/1
f 135/285/2 134/286/2 128/287/2 129/288/2
f 54/80/2 88/96/2 134/286/2 135/285/2
f 60/289/1 54/290/1 135/282/1 132/281/1
f 88/291/4 91/292/4 133/278/4 134/277/4
f 91/151/3 60/150/3 132/293/3 133/294/3
f 139/295/3 138/296/3 137/297/3 136/298/3
f 132/281/12 131/284/12 137/299/12 138/300/12
f 133/301/13 132/302/13 138/303/13 139/304/13
f 130/279/14 133/278/14 139/305/14 136/306/14
