# Blender 4.3.2
# www.blender.org
o Cube
v -0.023383 -1.945269 0.785469
v -0.093809 -1.999405 0.698192
v -0.031428 -1.893003 0.751519
v -0.126317 -1.965897 0.657218
v -0.075476 -2.073296 0.703193
v -0.023590 -2.122733 0.719013
v -0.101631 -2.065650 0.652533
v -0.031717 -2.131965 0.662033
v 0.093809 -1.999405 0.698192
v 0.023383 -1.945269 0.785469
v 0.126317 -1.965897 0.657218
v 0.031428 -1.893003 0.751519
v 0.023590 -2.122733 0.719013
v 0.075476 -2.073296 0.703193
v 0.031717 -2.131965 0.662033
v 0.101631 -2.065651 0.694573
v -0.095560 -1.755107 0.658827
v -0.221989 -1.827660 0.564654
v -0.178607 -2.109988 0.669013
v -0.095889 -2.175059 0.501565
v 0.095889 -2.175059 0.501565
v 0.178607 -2.109988 0.669013
v 0.221989 -1.827660 0.564654
v 0.095560 -1.755107 0.658827
v -0.171577 -1.563245 0.414809
v -0.335135 -1.619028 0.300307
v -0.269641 -2.020618 0.168450
v -0.171896 -2.078698 -0.024084
v 0.171896 -2.078698 -0.024084
v 0.269641 -2.020618 0.168450
v 0.335135 -1.619028 0.300307
v 0.171577 -1.563245 0.414809
v -0.226236 -1.152850 0.059480
v -0.416429 -1.207963 -0.054451
v -0.335048 -1.736963 -0.294793
v -0.226522 -1.793339 -0.485876
v 0.226522 -1.793339 -0.485876
v 0.335048 -1.736963 -0.294793
v 0.416429 -1.207963 -0.054451
v 0.226236 -1.152850 0.059480
v -0.264829 -0.735591 -0.187592
v -0.473842 -0.761531 -0.317473
v -0.381241 -1.072273 -0.860621
v -0.265096 -1.100631 -1.072442
v 0.265096 -1.100631 -1.072442
v 0.381241 -1.072273 -0.860621
v 0.473842 -0.761531 -0.317473
v 0.264829 -0.735591 -0.187592
v -0.264881 -0.354727 -0.289093
v -0.473842 -0.380239 -0.417939
v -0.381241 -0.692033 -0.963636
v -0.265144 -0.719766 -1.173942
v 0.265144 -0.719766 -1.173942
v 0.381241 -0.692033 -0.963636
v 0.473842 -0.380239 -0.417939
v 0.264881 -0.354727 -0.289093
v -0.264858 -0.033337 -0.337331
v -0.473842 -0.041779 -0.467589
v -0.381241 -0.150663 -1.073334
v -0.265137 -0.159964 -1.286108
v 0.265137 -0.159964 -1.286108
v 0.381241 -0.150663 -1.073334
v 0.473842 -0.041779 -0.467589
v 0.264858 -0.033337 -0.337331
v -0.269756 0.301758 -0.394933
v -0.481302 0.312095 -0.527094
v -0.387243 0.442802 -1.140892
v -0.270074 0.454100 -1.355184
v 0.270074 0.454100 -1.355184
v 0.387243 0.442802 -1.140892
v 0.481302 0.312095 -0.527094
v 0.269756 0.301758 -0.394933
v -0.252951 0.542818 -0.393698
v -0.456486 0.568384 -0.524524
v -0.367276 0.858780 -1.039353
v -0.253326 0.885726 -1.249699
v 0.253326 0.885726 -1.249699
v 0.367276 0.858780 -1.039353
v 0.456486 0.568384 -0.524524
v 0.252951 0.542818 -0.393698
v -0.222969 0.829852 -0.232963
v -0.412111 0.860414 -0.360101
v -0.331574 1.174775 -0.768560
v -0.223417 1.207030 -0.975106
v 0.223417 1.207030 -0.975106
v 0.331574 1.174775 -0.768560
v 0.412111 0.860414 -0.360101
v 0.222969 0.829852 -0.232963
v -0.197047 1.129606 -0.065873
v -0.373926 1.171301 -0.186433
v -0.300851 1.550218 -0.463052
v -0.197589 1.593631 -0.661895
v 0.197589 1.593631 -0.661895
v 0.300851 1.550218 -0.463052
v 0.373926 1.171301 -0.186433
v 0.197047 1.129606 -0.065873
v -0.157048 1.378266 0.149895
v -0.314895 1.419996 0.029291
v -0.253356 1.724586 -0.151859
v -0.157713 1.769035 -0.352033
v 0.157713 1.769035 -0.352033
v 0.253356 1.724586 -0.151859
v 0.314895 1.419996 0.029291
v 0.157048 1.378266 0.149895
v -0.096385 1.563063 0.267458
v -0.225101 1.615847 0.153455
v -0.181110 1.851354 0.153845
v -0.097161 1.902668 -0.034926
v 0.097161 1.902668 -0.034926
v 0.181110 1.851354 0.153845
v 0.225101 1.615847 0.153455
v 0.096385 1.563063 0.267458
v -0.036579 1.649449 0.229199
v -0.136034 1.702667 0.114810
v -0.109449 1.802558 0.235952
v -0.037312 1.854682 0.046460
v 0.037312 1.854682 0.046460
v 0.109449 1.802558 0.235952
v 0.136034 1.702667 0.114810
v 0.036579 1.649449 0.229199
v -0.136034 1.884982 0.423118
v -0.036690 1.837449 0.518584
v -0.037395 2.020997 0.408679
v -0.109449 1.971766 0.424045
v 0.109449 1.971766 0.424045
v 0.037395 2.020997 0.408679
v 0.036690 1.837449 0.518584
v 0.136034 1.884982 0.423118
v -0.093809 -2.025383 0.783731
v -0.023383 -1.983390 0.833414
v -0.023590 -2.121048 0.766958
v -0.075476 -2.082699 0.751138
v 0.075476 -2.082699 0.751138
v 0.023590 -2.121048 0.766958
v 0.023383 -1.983390 0.833414
v 0.093809 -2.025383 0.746138
vn -0.0000 0.5447 0.8386
vn -0.0000 -0.9658 0.2594
vn 0.4579 0.2363 0.8570
vn -0.3085 0.1883 0.9324
vn -0.8635 -0.2131 0.4571
vn -0.9673 -0.1618 0.1952
vn -0.0000 -0.9836 -0.1803
vn -0.0000 0.5579 0.8299
vn -0.0000 -0.9871 0.1599
vn 0.6320 0.0323 0.7743
vn -0.9876 -0.1421 -0.0670
vn 0.9673 -0.1618 0.1952
vn -0.9851 -0.1688 0.0333
vn -0.0000 0.7861 0.6181
vn -0.0000 0.5095 0.8605
vn -0.0000 0.6546 0.7560
vn -0.0000 -0.8507 -0.5257
vn 0.9851 -0.1688 0.0333
vn -0.0000 -0.2575 -0.9663
vn -0.0000 -0.6462 -0.7632
vn 0.9876 -0.1421 -0.0670
vn -0.9885 -0.0390 -0.1459
vn -0.9878 -0.0344 -0.1518
vn 0.9885 -0.0390 -0.1459
vn -0.9885 -0.0270 -0.1491
vn -0.0000 0.2575 0.9663
vn -0.0000 0.1694 0.9855
vn -0.0000 0.1484 0.9889
vn -0.0000 -0.1965 -0.9805
vn 0.9885 -0.0270 -0.1491
vn -0.0000 0.2374 -0.9714
vn -0.0000 -0.1118 -0.9937
vn 0.9878 -0.0344 -0.1518
vn -0.9880 0.0857 -0.1285
vn -0.9864 0.1485 -0.0709
vn 0.9880 0.0857 -0.1285
vn -0.9822 0.1761 -0.0653
vn -0.0000 -0.0051 1.0000
vn -0.0000 0.6295 -0.7770
vn -0.0000 -0.4886 0.8725
vn -0.0000 0.6497 -0.7602
vn 0.9822 0.1761 -0.0653
vn 0.9770 0.2112 0.0280
vn 0.9864 0.1485 -0.0709
vn -0.9770 0.2112 0.0280
vn -0.0000 -0.4869 0.8735
vn -0.1819 -0.3009 0.9361
vn -0.9535 0.2450 0.1755
vn -0.0000 -0.6554 0.7553
vn -0.0000 0.8702 -0.4926
vn -0.0000 0.8614 0.5079
vn -0.0000 -0.5368 0.8437
vn -0.0000 0.9215 -0.3883
vn 0.9535 0.2450 0.1755
vn -0.0000 0.4501 0.8930
vn 0.1819 -0.3009 0.9361
vn -0.8384 0.4448 -0.3150
vn -0.0000 0.4050 0.9143
vn -0.0000 -0.8386 0.5448
vn -0.0000 0.9088 -0.4173
vn 0.8384 0.4448 -0.3150
vn -0.7824 0.1566 0.6028
vn -0.6950 -0.6807 0.2314
vn 0.6222 -0.7041 0.3422
vn 0.7824 0.1566 0.6028
vn 0.1064 -0.8664 0.4879
vn 0.6805 0.0937 0.7267
vn -0.6805 0.0937 0.7267
vn -0.0932 -0.8079 0.5819
vn 0.6433 0.4666 0.6070
vn -0.6433 0.4666 0.6070
vn -0.6182 -0.7849 -0.0414
vn 0.6182 -0.7849 -0.0414
vn 0.7818 -0.5712 -0.2499
vn 0.5774 0.4771 0.6625
vn -0.5774 0.4771 0.6625
vn -0.7818 -0.5712 -0.2499
vn -0.5368 0.3840 0.7513
vn -0.8391 -0.3815 -0.3877
vn 0.5368 0.3840 0.7513
vn 0.8391 -0.3815 -0.3877
vn 0.5330 0.2167 0.8179
vn -0.5330 0.2167 0.8179
vn -0.8762 -0.1251 -0.4654
vn 0.8762 -0.1251 -0.4654
vn 0.8762 -0.0952 -0.4725
vn 0.5301 0.1244 0.8388
vn -0.5301 0.1244 0.8388
vn -0.8762 -0.0952 -0.4725
vn -0.5242 0.1336 0.8410
vn -0.8758 -0.0621 -0.4787
vn 0.5242 0.1336 0.8410
vn 0.8758 -0.0621 -0.4787
vn 0.5325 0.0381 0.8456
vn -0.5325 0.0381 0.8456
vn -0.8739 0.1507 -0.4621
vn 0.8739 0.1507 -0.4621
vn 0.8271 0.4122 -0.3821
vn 0.5482 -0.3549 0.7573
vn -0.5482 -0.3549 0.7573
vn -0.8271 0.4122 -0.3821
vn 0.5711 -0.3535 0.7409
vn -0.5711 -0.3535 0.7409
vn -0.8509 0.3677 -0.3751
vn 0.8509 0.3677 -0.3751
vn -0.7522 0.6137 -0.2398
vn 0.7522 0.6137 -0.2398
vn 0.5920 -0.4577 0.6634
vn -0.5920 -0.4577 0.6634
vn 0.6939 0.7050 -0.1468
vn 0.6593 -0.1997 0.7249
vn -0.6593 -0.1997 0.7249
vn -0.6939 0.7050 -0.1468
vn 0.3836 0.6297 0.6755
vn -0.3836 0.6297 0.6755
vn 0.2375 0.9076 0.3462
vn -0.2375 0.9076 0.3462
vn 0.8014 0.5106 -0.3114
vn 0.7023 -0.6052 0.3748
vn -0.7023 -0.6052 0.3748
vn -0.8014 0.5106 -0.3115
vn -0.0000 0.7827 0.6224
vn 0.0911 -0.4290 0.8987
vn -0.7195 0.6260 0.3006
vn -0.0000 -0.9994 0.0351
vn 0.7823 0.5178 0.3461
vn 0.9561 -0.2749 -0.1014
vn 0.6335 -0.7712 -0.0621
vn -0.9645 -0.2553 -0.0677
vn -0.6335 -0.7712 -0.0621
vt 0.796425 0.551576
vt 0.795136 0.539188
vt 0.805210 0.539188
vt 0.803921 0.551576
vt 0.374692 0.783864
vt 0.373108 0.773823
vt 0.396141 0.760095
vt 0.400928 0.790453
vt 0.538175 0.786001
vt 0.539653 0.805801
vt 0.527136 0.806448
vt 0.527136 0.751149
vt 0.481921 0.799438
vt 0.484206 0.786001
vt 0.495245 0.751149
vt 0.495245 0.806448
vt 0.273676 0.794760
vt 0.279207 0.784873
vt 0.285773 0.801141
vt 0.276973 0.807636
vt 0.005033 0.738173
vt 0.019623 0.682763
vt 0.067712 0.629810
vt 0.103186 0.692183
vt 0.946029 0.650084
vt 0.915293 0.650084
vt 0.903111 0.554582
vt 0.958211 0.554582
vt 0.784858 0.506028
vt 0.815488 0.506028
vt 0.365306 0.776249
vt 0.366484 0.783718
vt 0.309342 0.807721
vt 0.308372 0.805384
vt 0.307054 0.785064
vt 0.312575 0.794845
vt 0.189659 0.615161
vt 0.129577 0.536981
vt 0.172338 0.443735
vt 0.288384 0.466560
vt 0.698552 0.683461
vt 0.712969 0.738866
vt 0.615191 0.692823
vt 0.650884 0.630563
vt 0.772674 0.442337
vt 0.827671 0.442337
vt 0.836432 0.331524
vt 0.763914 0.331524
vt 0.757729 0.236281
vt 0.842617 0.236281
vt 0.894356 0.443698
vt 0.966966 0.443698
vt 0.529015 0.615709
vt 0.589360 0.537694
vt 0.973148 0.258456
vt 0.888174 0.258456
vt 0.888167 0.191312
vt 0.973155 0.191312
vt 0.430561 0.466919
vt 0.546851 0.444402
vt 0.184101 0.372000
vt 0.300681 0.394857
vt 0.310776 0.294945
vt 0.186615 0.310649
vt 0.190744 0.245966
vt 0.311255 0.188444
vt 0.418300 0.395149
vt 0.535124 0.372601
vt 0.757721 0.168266
vt 0.842625 0.168266
vt 0.842621 0.116581
vt 0.757724 0.116581
vt 0.756939 0.061577
vt 0.843406 0.061577
vt 0.888168 0.098437
vt 0.973154 0.098437
vt 0.408252 0.295153
vt 0.532636 0.311206
vt 0.887376 0.660150
vt 0.973946 0.660150
vt 0.971261 0.709798
vt 0.890061 0.709798
vt 0.887376 0.005033
vt 0.973946 0.005033
vt 0.407837 0.188590
vt 0.528561 0.246484
vt 0.184666 0.202177
vt 0.281802 0.122849
vt 0.220649 0.084665
vt 0.145401 0.161978
vt 0.103847 0.118992
vt 0.151212 0.038199
vt 0.437234 0.122970
vt 0.534571 0.202638
vt 0.759633 0.028519
vt 0.840713 0.028519
vt 0.894854 0.780886
vt 0.966468 0.780886
vt 0.962328 0.863430
vt 0.898994 0.863430
vt 0.755293 0.586977
vt 0.836366 0.586977
vt 0.831674 0.642158
vt 0.760211 0.642158
vt 0.498250 0.084805
vt 0.573685 0.162410
vt 0.615107 0.119406
vt 0.567564 0.038374
vt 0.633479 0.027189
vt 0.663455 0.089856
vt 0.055289 0.089472
vt 0.085107 0.026985
vt 0.827639 0.699691
vt 0.764484 0.699691
vt 0.585681 0.781345
vt 0.585681 0.751149
vt 0.598251 0.760609
vt 0.595561 0.787936
vt 0.026350 0.064065
vt 0.021224 0.023969
vt 0.821143 0.756815
vt 0.770808 0.756815
vt 0.955938 0.930082
vt 0.905384 0.930082
vt 0.130349 0.795232
vt 0.130349 0.764088
vt 0.149384 0.773680
vt 0.149384 0.785640
vt 0.811460 0.794056
vt 0.780568 0.794056
vt 0.946233 0.994967
vt 0.915089 0.994967
vt 0.697089 0.024166
vt 0.692094 0.064345
vt 0.410993 0.772913
vt 0.414384 0.758585
vt 0.423786 0.751149
vt 0.438509 0.751149
vt 0.449189 0.757782
vt 0.449804 0.784225
vt 0.440579 0.791521
vt 0.414989 0.784833
vt 0.620656 0.751149
vt 0.620656 0.781153
vt 0.610056 0.787607
vt 0.608316 0.760166
vt 0.095340 0.781976
vt 0.098481 0.753981
vt 0.101400 0.821099
vt 0.087713 0.826572
vt 0.238092 0.771263
vt 0.238092 0.802158
vt 0.220341 0.792573
vt 0.220341 0.780848
vt 0.505347 0.751219
vt 0.517070 0.751149
vt 0.517070 0.809716
vt 0.505311 0.809786
vt 0.459883 0.751149
vt 0.471842 0.751149
vt 0.471856 0.826256
vt 0.459869 0.826256
vt 0.026632 0.754272
vt 0.029836 0.782168
vt 0.037470 0.826724
vt 0.023712 0.821337
vt 0.254895 0.795144
vt 0.258213 0.783128
vt 0.288093 0.813795
vt 0.277086 0.817918
vt 0.309170 0.817905
vt 0.298159 0.813888
vt 0.327737 0.782945
vt 0.331137 0.794926
vt 0.374829 0.807695
vt 0.364402 0.796867
vt 0.318541 0.750634
vt 0.298159 0.752413
vt 0.267311 0.750634
vt 0.288093 0.751974
vt 0.364402 0.763993
vt 0.365913 0.751149
vt 0.764595 0.501666
vt 0.746461 0.432561
vt 0.853885 0.432561
vt 0.835751 0.501666
vt 0.143372 0.692079
vt 0.040296 0.740568
vt 0.677455 0.741083
vt 0.574709 0.692510
vt 0.488794 0.615303
vt 0.733432 0.321743
vt 0.866914 0.321743
vt 0.229549 0.614981
vt 0.876115 0.220042
vt 0.331839 0.460417
vt 0.724231 0.220042
vt 0.386754 0.460528
vt 0.724231 0.152127
vt 0.876115 0.152127
vt 0.343819 0.388694
vt 0.374810 0.388739
vt 0.364675 0.285415
vt 0.724231 0.097872
vt 0.876115 0.097872
vt 0.354003 0.285454
vt 0.877311 0.039988
vt 0.354337 0.175321
vt 0.723035 0.039988
vt 0.364402 0.175215
vt 0.727012 0.005033
vt 0.873334 0.005033
vt 0.323738 0.107218
vt 0.394956 0.107091
vt 0.456886 0.068172
vt 0.869342 0.574214
vt 0.862343 0.630464
vt 0.730259 0.630464
vt 0.723035 0.574214
vt 0.261689 0.068270
vt 0.856346 0.690179
vt 0.736501 0.690179
vt 0.190447 0.020271
vt 0.528021 0.020217
vt 0.124563 0.008706
vt 0.593740 0.008692
vt 0.846800 0.747302
vt 0.081116 0.135447
vt 0.032493 0.105703
vt 0.659860 0.005033
vt 0.712969 0.081594
vt 0.685714 0.105900
vt 0.005033 0.081459
vt 0.058207 0.005033
vt 0.213419 0.822787
vt 0.195549 0.808512
vt 0.195549 0.764908
vt 0.213419 0.750634
vt 0.166227 0.750634
vt 0.185484 0.762119
vt 0.185484 0.797201
vt 0.166227 0.808686
vt 0.057647 0.750634
vt 0.046441 0.826419
vt 0.005033 0.834711
vt 0.005033 0.770701
vt 0.120283 0.770694
vt 0.120283 0.834755
vt 0.078909 0.826474
vt 0.067713 0.750634
vt 0.803921 0.564149
vt 0.796425 0.564149
vt 0.549719 0.765299
vt 0.554723 0.758201
vt 0.560855 0.753778
vt 0.569339 0.751149
vt 0.575615 0.754638
vt 0.575615 0.774166
vt 0.569537 0.778549
vt 0.553834 0.775991
vt 0.259309 0.807378
vt 0.248158 0.806100
vt 0.630721 0.758710
vt 0.630721 0.751149
vt 0.638024 0.751149
vt 0.638024 0.758710
vt 0.337968 0.805834
vt 0.320065 0.803745
vt 0.317732 0.813879
vt 0.318162 0.822228
vt 0.268633 0.813858
vt 0.268127 0.822313
s 0
f 10/1/1 12/2/1 3/3/1 1/4/1
f 15/5/2 8/6/2 20/7/2 21/8/2
f 11/9/3 16/10/3 22/11/3 23/12/3
f 7/13/4 4/14/4 18/15/4 19/16/4
f 2/17/5 4/18/5 7/19/5 5/20/5
f 19/21/6 18/22/6 26/23/6 27/24/6
f 21/25/7 20/26/7 28/27/7 29/28/7
f 3/3/8 12/2/8 24/29/8 17/30/8
f 6/31/9 8/6/9 15/5/9 13/32/9
f 14/33/10 16/34/10 11/35/10 9/36/10
f 35/37/11 34/38/11 42/39/11 43/40/11
f 23/41/12 22/42/12 30/43/12 31/44/12
f 27/24/13 26/23/13 34/38/13 35/37/13
f 17/30/14 24/29/14 32/45/14 25/46/14
f 33/47/15 40/48/15 48/49/15 41/50/15
f 25/46/16 32/45/16 40/48/16 33/47/16
f 29/28/17 28/27/17 36/51/17 37/52/17
f 31/44/18 30/43/18 38/53/18 39/54/18
f 45/55/19 44/56/19 52/57/19 53/58/19
f 37/52/20 36/51/20 44/56/20 45/55/20
f 39/54/21 38/53/21 46/59/21 47/60/21
f 43/40/22 42/39/22 50/61/22 51/62/22
f 59/63/23 58/64/23 66/65/23 67/66/23
f 47/60/24 46/59/24 54/67/24 55/68/24
f 51/62/25 50/61/25 58/64/25 59/63/25
f 41/50/26 48/49/26 56/69/26 49/70/26
f 57/71/27 64/72/27 72/73/27 65/74/27
f 49/70/28 56/69/28 64/72/28 57/71/28
f 53/58/29 52/57/29 60/75/29 61/76/29
f 55/68/30 54/67/30 62/77/30 63/78/30
f 69/79/31 68/80/31 76/81/31 77/82/31
f 61/76/32 60/75/32 68/83/32 69/84/32
f 63/78/33 62/77/33 70/85/33 71/86/33
f 67/66/34 66/65/34 74/87/34 75/88/34
f 83/89/35 82/90/35 90/91/35 91/92/35
f 71/86/36 70/85/36 78/93/36 79/94/36
f 75/88/37 74/87/37 82/90/37 83/89/37
f 65/74/38 72/73/38 80/95/38 73/96/38
f 85/97/39 84/98/39 92/99/39 93/100/39
f 73/101/40 80/102/40 88/103/40 81/104/40
f 77/82/41 76/81/41 84/98/41 85/97/41
f 79/94/42 78/93/42 86/105/42 87/106/42
f 95/107/43 94/108/43 102/109/43 103/110/43
f 87/106/44 86/105/44 94/108/44 95/107/44
f 91/92/45 90/91/45 98/111/45 99/112/45
f 81/104/46 88/103/46 96/113/46 89/114/46
f 107/115/47 106/116/47 114/117/47 115/118/47
f 99/112/48 98/111/48 106/119/48 107/120/48
f 89/114/49 96/113/49 104/121/49 97/122/49
f 93/100/50 92/99/50 100/123/50 101/124/50
f 109/125/51 108/126/51 116/127/51 117/128/51
f 97/122/52 104/121/52 112/129/52 105/130/52
f 101/124/53 100/123/53 108/131/53 109/132/53
f 103/110/54 102/109/54 110/133/54 111/134/54
f 125/135/55 126/136/55 123/137/55 124/138/55 121/139/55 122/140/55 127/141/55 128/142/55
f 111/143/56 110/144/56 118/145/56 119/146/56
f 115/147/57 114/148/57 121/149/57 124/150/57
f 105/151/58 112/152/58 120/153/58 113/154/58
f 113/155/59 120/156/59 127/157/59 122/158/59
f 117/159/60 116/160/60 123/161/60 126/162/60
f 119/163/61 118/164/61 125/165/61 128/166/61
f 1/167/62 3/168/62 4/18/62 2/17/62
f 8/169/63 6/170/63 5/20/63 7/19/63
f 16/34/64 14/33/64 13/171/64 15/172/64
f 12/173/65 10/174/65 9/36/65 11/35/65
f 15/5/66 21/8/66 22/175/66 16/176/66
f 24/177/67 12/173/67 11/35/67 23/178/67
f 3/168/68 17/179/68 18/180/68 4/18/68
f 20/7/69 8/6/69 7/181/69 19/182/69
f 23/183/70 31/184/70 32/45/70 24/29/70
f 26/185/71 18/186/71 17/30/71 25/46/71
f 19/21/72 27/24/72 28/187/72 20/188/72
f 30/43/73 22/42/73 21/189/73 29/190/73
f 29/190/74 37/191/74 38/53/74 30/43/74
f 40/48/75 32/45/75 31/184/75 39/192/75
f 25/46/76 33/47/76 34/193/76 26/185/76
f 36/194/77 28/187/77 27/24/77 35/37/77
f 33/47/78 41/50/78 42/195/78 34/193/78
f 44/196/79 36/194/79 35/37/79 43/40/79
f 39/192/80 47/197/80 48/49/80 40/48/80
f 46/59/81 38/53/81 37/191/81 45/198/81
f 47/197/82 55/199/82 56/69/82 48/49/82
f 50/200/83 42/195/83 41/50/83 49/70/83
f 43/40/84 51/62/84 52/201/84 44/196/84
f 54/67/85 46/59/85 45/198/85 53/202/85
f 53/202/86 61/203/86 62/77/86 54/67/86
f 64/72/87 56/69/87 55/199/87 63/204/87
f 49/70/88 57/71/88 58/205/88 50/200/88
f 60/206/89 52/201/89 51/62/89 59/63/89
f 57/71/90 65/74/90 66/207/90 58/205/90
f 68/208/91 60/206/91 59/63/91 67/66/91
f 63/204/92 71/209/92 72/73/92 64/72/92
f 70/85/93 62/77/93 61/203/93 69/210/93
f 71/209/94 79/211/94 80/95/94 72/73/94
f 74/212/95 66/207/95 65/74/95 73/96/95
f 67/66/96 75/88/96 76/213/96 68/208/96
f 78/93/97 70/85/97 69/210/97 77/214/97
f 77/214/98 85/215/98 86/105/98 78/93/98
f 88/103/99 80/102/99 79/216/99 87/217/99
f 73/101/100 81/104/100 82/218/100 74/219/100
f 84/220/101 76/213/101 75/88/101 83/89/101
f 87/217/102 95/221/102 96/113/102 88/103/102
f 90/222/103 82/218/103 81/104/103 89/114/103
f 83/89/104 91/92/104 92/223/104 84/220/104
f 94/108/105 86/105/105 85/215/105 93/224/105
f 91/92/106 99/112/106 100/225/106 92/223/106
f 102/109/107 94/108/107 93/224/107 101/226/107
f 104/121/108 96/113/108 95/221/108 103/227/108
f 89/228/109 97/229/109 98/111/109 90/91/109
f 101/226/110 109/230/110 110/133/110 102/109/110
f 112/231/111 104/232/111 103/110/111 111/134/111
f 97/229/112 105/233/112 106/119/112 98/111/112
f 108/234/113 100/225/113 99/112/113 107/120/113
f 111/235/114 119/236/114 120/153/114 112/152/114
f 114/237/115 106/238/115 105/151/115 113/154/115
f 107/239/116 115/240/116 116/127/116 108/126/116
f 118/241/117 110/242/117 109/125/117 117/128/117
f 117/243/118 126/244/118 125/165/118 118/164/118
f 127/245/119 120/246/119 119/163/119 128/166/119
f 113/247/120 122/248/120 121/149/120 114/148/120
f 123/249/121 116/250/121 115/147/121 124/150/121
f 10/1/122 1/4/122 130/251/122 135/252/122
f 132/253/123 131/254/123 134/255/123 133/256/123 136/257/123 135/258/123 130/259/123 129/260/123
f 1/167/124 2/17/124 129/261/124 130/262/124
f 6/263/125 13/264/125 134/265/125 131/266/125
f 9/36/126 10/174/126 135/267/126 136/268/126
f 14/33/127 9/36/127 136/268/127 133/269/127
f 13/171/128 14/33/128 133/269/128 134/270/128
f 2/17/129 5/20/129 132/271/129 129/261/129
f 5/20/130 6/170/130 131/272/130 132/271/130
