# Blender 4.3.2
# www.blender.org
o Cube.006
v -6.395570 20.862389 20.875862
v -6.395570 21.324667 22.379219
v -6.911629 21.324667 20.875862
v -6.395570 31.506144 22.379219
v -6.089711 31.968422 19.984850
v -6.911629 31.506144 20.875862
v -6.395570 20.862389 -12.234924
v -6.911629 21.324667 -12.234924
v -6.395570 21.324667 -13.738281
v -6.089711 31.968422 -11.343912
v -6.395570 31.506144 -13.738281
v -6.911629 31.506144 -12.234924
v 4.970396 20.862389 20.875862
v 5.486454 21.324667 20.875862
v 4.970396 21.324667 22.379219
v 4.664537 31.968422 19.984850
v 4.970396 31.506144 22.379219
v 5.486454 31.506144 20.875862
v 4.970396 20.862389 -12.234924
v 4.970396 21.324667 -13.738281
v 5.486454 21.324667 -12.234924
v 4.664537 31.968422 -11.343912
v 5.486454 31.506144 -12.234924
v 4.970396 31.506144 -13.738281
v -6.395570 31.968422 20.875862
v -6.395570 31.968422 -12.234924
v 4.970396 31.968422 -12.234924
v 4.970396 31.968422 20.875862
v -6.089711 23.869671 19.984850
v -6.089711 23.869671 -11.343912
v 4.664537 23.869671 -11.343912
v 4.664537 23.869671 19.984850
v -6.395569 32.716782 -18.918846
v -6.395569 32.638264 -20.490564
v 4.970395 32.638264 -20.490564
v 4.970395 32.716782 -18.918846
v -6.089710 32.716782 -17.987314
v 4.664536 32.716782 -17.987314
v -11.943595 33.644497 20.875860
v -12.709545 33.756470 20.875860
v -12.709545 33.756470 -12.234922
v -11.943595 33.644497 -12.234922
v -11.489631 33.644497 19.984848
v -11.489631 33.644497 -11.343907
v 11.437248 33.676388 20.875860
v 10.671297 33.564419 20.875860
v 10.671297 33.564419 -12.234922
v 11.437248 33.676388 -12.234922
v 10.217332 33.564419 -11.343907
v 10.217332 33.564419 19.984848
v -6.395569 33.564930 29.277122
v -6.395569 33.452957 27.705400
v 4.970395 33.452957 27.705400
v 4.970395 33.564930 29.277122
v 4.664536 33.452957 26.773870
v -6.089710 33.452957 26.773870
vn -0.0000 -0.0000 1.0000
vn 1.0000 -0.0000 -0.0000
vn -0.0000 -0.0000 -1.0000
vn -1.0000 -0.0000 -0.0000
vn -0.6504 -0.7261 0.2233
vn -0.6504 0.7261 0.2233
vn -0.6504 -0.7261 -0.2233
vn -0.6504 0.7261 -0.2233
vn 0.6504 -0.7261 0.2233
vn 0.6504 0.7261 0.2233
vn 0.6504 -0.7261 -0.2233
vn 0.6504 0.7261 -0.2233
vn -0.6672 -0.7449 -0.0000
vn -0.9458 -0.0000 0.3247
vn 0.2905 0.9488 -0.1239
vn -0.9458 -0.0000 -0.3247
vn -0.0000 -0.9558 -0.2939
vn 0.9458 -0.0000 -0.3247
vn 0.6672 -0.7449 -0.0000
vn 0.9458 -0.0000 0.3247
vn -0.0000 -0.9558 0.2939
vn -0.5358 0.8249 -0.1799
vn -0.0000 -1.0000 -0.0000
vn 0.2964 0.9551 -0.0000
vn 0.3155 0.9430 0.1059
vn -0.2710 0.9556 0.1156
vn -0.0000 -0.9582 0.2860
vn -0.0000 1.0000 -0.0000
vn -0.0000 0.9988 -0.0499
vn -0.0000 -0.9862 -0.1654
vn -0.3155 0.9430 0.1059
vn -0.0000 0.9937 0.1119
vn 0.1446 0.9895 -0.0000
vn -0.3618 -0.9322 -0.0000
vn 0.2905 0.9488 0.1239
vn -0.1446 0.9895 -0.0000
vn -0.2710 0.9556 -0.1156
vn 0.3426 -0.9395 -0.0000
vn -0.2762 0.9611 -0.0000
vn -0.0000 0.9975 -0.0711
vn 0.5358 0.8249 -0.1799
vn -0.0000 0.9769 -0.2136
vt 0.361880 0.272637
vt 0.361880 0.051304
vt 0.583213 0.051304
vt 0.583213 0.272637
vt 0.351831 0.771641
vt 0.351831 0.550309
vt 0.573164 0.550309
vt 0.573164 0.771641
vt 0.795514 0.215969
vt 0.795514 0.006549
vt 0.971571 0.006549
vt 0.971571 0.215969
vt 0.586261 0.771642
vt 0.586261 0.550309
vt 0.807594 0.550309
vt 0.807594 0.771642
vt 0.227881 0.719649
vt 0.006549 0.719649
vt 0.006549 0.498316
vt 0.227881 0.498316
vt 0.583213 0.282686
vt 0.593263 0.272637
vt 0.327670 0.488266
vt 0.335533 0.494909
vt 0.327670 0.502462
vt 0.571355 0.305887
vt 0.572637 0.295783
vt 0.582605 0.305840
vt 0.327670 0.521893
vt 0.335251 0.515559
vt 0.335251 0.529728
vt 0.361880 0.282686
vt 0.351831 0.272637
vt 0.301983 0.698529
vt 0.315990 0.696123
vt 0.310189 0.704330
vt 0.571355 0.527217
vt 0.582605 0.527169
vt 0.572637 0.537211
vt 0.392020 0.851625
vt 0.382577 0.855064
vt 0.379138 0.845621
vt 0.807594 0.781691
vt 0.586261 0.781691
vt 0.593263 0.051304
vt 0.277302 0.350202
vt 0.283256 0.356146
vt 0.284016 0.460528
vt 0.278062 0.451712
vt 0.227881 0.729698
vt 0.006549 0.729698
vt 0.417998 0.845621
vt 0.405117 0.851625
vt 0.405117 0.804076
vt 0.410315 0.794788
vt 0.006549 0.488266
vt 0.227881 0.488266
vt 0.573164 0.781691
vt 0.351831 0.781691
vt 0.314573 0.612945
vt 0.301983 0.619540
vt 0.301983 0.503229
vt 0.304109 0.488266
vt 0.351831 0.051304
vt 0.067926 0.349815
vt 0.061972 0.355736
vt 0.017002 0.352791
vt 0.023227 0.346870
vt 0.351831 0.527062
vt 0.351831 0.305733
vt 0.068686 0.451325
vt 0.277302 0.141606
vt 0.283256 0.135685
vt 0.328265 0.134325
vt 0.322040 0.140246
vt 0.067926 0.141219
vt 0.061972 0.135275
vt 0.062695 0.021621
vt 0.068650 0.030438
vt 0.361880 0.006549
vt 0.583213 0.006549
vt 0.595702 0.296169
vt 0.804297 0.295783
vt 0.804297 0.505159
vt 0.595702 0.505545
vt 0.817394 0.505204
vt 0.817394 0.295783
vt 0.993451 0.295783
vt 0.993451 0.505204
vt 0.606360 0.215969
vt 0.606360 0.006549
vt 0.782417 0.006549
vt 0.782417 0.215969
vt 0.006549 0.952216
vt 0.006549 0.742795
vt 0.182606 0.742795
vt 0.182606 0.952216
vt 0.328265 0.354786
vt 0.338734 0.134496
vt 0.338734 0.354957
vt 0.322040 0.348842
vt 0.386821 0.794788
vt 0.392020 0.804076
vt 0.240979 0.709698
vt 0.240979 0.488368
vt 0.288886 0.488266
vt 0.288886 0.709596
vt 0.062732 0.460119
vt 0.284067 0.475169
vt 0.062782 0.474760
vt 0.833425 0.917958
vt 0.820691 0.911647
vt 0.830965 0.789030
vt 0.833425 0.803942
vt 0.308875 0.748957
vt 0.308875 0.968481
vt 0.195703 0.962319
vt 0.195703 0.742795
vt 0.859256 0.911647
vt 0.846522 0.917958
vt 0.846522 0.803941
vt 0.848982 0.789030
vt 0.283980 0.022031
vt 0.062746 0.006549
vt 0.284031 0.006958
vt 0.278025 0.030825
vt 0.820691 0.775933
vt 0.820691 0.556409
vt 0.936311 0.550309
vt 0.936311 0.769833
vt 0.334562 0.874068
vt 0.321972 0.867474
vt 0.332436 0.742795
vt 0.334562 0.757758
vt 0.017002 0.132330
vt 0.006549 0.352555
vt 0.006549 0.132094
vt 0.023227 0.138274
vt 0.366041 0.859258
vt 0.351831 0.859047
vt 0.351831 0.794788
vt 0.357402 0.804022
vt 0.301983 0.642621
vt 0.306060 0.632637
s 0
f 15/1/1 17/2/1 4/3/1 2/4/1
f 21/5/2 23/6/2 18/7/2 14/8/2
f 5/9/3 16/10/3 32/11/3 29/12/3
f 3/13/4 6/14/4 12/15/4 8/16/4
f 9/17/3 11/18/3 24/19/3 20/20/3
f 1/21/5 2/4/5 3/22/5
f 4/23/6 25/24/6 6/25/6
f 7/26/7 8/27/7 9/28/7
f 26/29/8 11/30/8 12/31/8
f 13/32/9 14/33/9 15/1/9
f 28/34/10 17/35/10 18/36/10
f 19/37/11 20/38/11 21/39/11
f 27/40/12 23/41/12 24/42/12
f 7/43/13 1/44/13 3/13/13 8/16/13
f 2/4/14 4/3/14 6/45/14 3/22/14
f 10/46/15 26/47/15 42/48/15 44/49/15
f 11/18/16 9/17/16 8/50/16 12/51/16
f 19/37/17 7/26/17 9/28/17 20/38/17
f 11/52/4 26/53/4 33/54/4 34/55/4
f 23/56/18 21/57/18 20/20/18 24/19/18
f 13/58/19 19/59/19 21/5/19 14/8/19
f 23/60/3 27/61/3 47/62/3 48/63/3
f 17/2/20 15/1/20 14/33/20 18/64/20
f 1/21/21 13/32/21 15/1/21 2/4/21
f 5/65/22 25/66/22 52/67/22 56/68/22
f 7/26/23 19/37/23 13/69/23 1/70/23
f 5/65/24 10/46/24 44/49/24 43/71/24
f 22/72/25 27/73/25 36/74/25 38/75/25
f 16/76/26 28/77/26 46/78/26 50/79/26
f 4/3/27 17/2/27 54/80/27 51/81/27
f 31/82/28 30/83/28 29/84/28 32/85/28
f 22/86/1 10/87/1 30/88/1 31/89/1
f 16/90/4 22/91/4 31/92/4 32/93/4
f 10/94/2 5/95/2 29/96/2 30/97/2
f 33/98/29 36/74/29 35/99/29 34/100/29
f 37/101/28 38/75/28 36/74/28 33/98/28
f 27/40/2 24/42/2 35/102/2 36/103/2
f 24/104/30 11/105/30 34/106/30 35/107/30
f 26/47/31 10/46/31 37/101/31 33/98/31
f 10/46/32 22/72/32 38/75/32 37/101/32
f 39/108/33 42/48/33 41/109/33 40/110/33
f 43/71/28 44/49/28 42/48/28 39/108/28
f 26/111/3 12/112/3 41/113/3 42/114/3
f 12/115/34 6/116/34 40/117/34 41/118/34
f 6/119/1 25/120/1 39/121/1 40/122/1
f 25/66/35 5/65/35 43/71/35 39/108/35
f 47/123/36 46/78/36 45/124/36 48/125/36
f 49/126/28 50/79/28 46/78/28 47/123/28
f 27/73/37 22/72/37 49/126/37 47/123/37
f 18/127/38 23/128/38 48/129/38 45/130/38
f 22/72/39 16/76/39 50/79/39 49/126/39
f 28/131/1 18/132/1 45/133/1 46/134/1
f 53/135/40 52/67/40 51/136/40 54/137/40
f 55/138/28 56/68/28 52/67/28 53/135/28
f 25/139/4 4/140/4 51/141/4 52/142/4
f 28/77/41 16/76/41 55/138/41 53/135/41
f 16/76/42 5/65/42 56/68/42 55/138/42
f 17/35/2 28/34/2 53/143/2 54/144/2
